<svg width="512" height="512" viewBox="0 0 512 512" fill="none" xmlns="http://www.w3.org/2000/svg">
  <!-- Background -->
  <rect width="512" height="512" rx="115" fill="#007AFF"/>
  
  <!-- Wrench Icon -->
  <g transform="translate(128, 128)">
    <!-- Main wrench body -->
    <path d="M183.7 77.7c-5.5-5.5-5.5-14.4 0-19.9l19.9-19.9c5.5-5.5 14.4-5.5 19.9 0l19.9 19.9c5.5 5.5 5.5 14.4 0 19.9L223.5 97.6c-5.5 5.5-14.4 5.5-19.9 0l-19.9-19.9z" 
          fill="white" stroke="white" stroke-width="8" stroke-linecap="round" stroke-linejoin="round"/>
    
    <!-- Wrench handle -->
    <path d="M204.5 97.6L97.6 204.5c-15.6 15.6-40.9 15.6-56.6 0l-21.2-21.2c-15.6-15.6-15.6-40.9 0-56.6L126.6 19.9" 
          fill="none" stroke="white" stroke-width="24" stroke-linecap="round" stroke-linejoin="round"/>
    
    <!-- Wrench adjustment -->
    <circle cx="64" cy="192" r="20" fill="white"/>
    <circle cx="192" cy="64" r="20" fill="white"/>
    
    <!-- Bolt/Nut detail -->
    <circle cx="170" cy="86" r="32" fill="none" stroke="white" stroke-width="12"/>
    <path d="M146 86h48M170 62v48" stroke="white" stroke-width="8" stroke-linecap="round"/>
  </g>
  
  <!-- Accent dot (Apple style) -->
  <circle cx="420" cy="420" r="24" fill="white" opacity="0.3"/>
</svg>
